<svg xmlns="http://www.w3.org/2000/svg" viewBox="0 0 338.43 113.39"><path fill="#fff" d="M261.6 67.78a16.49 16.49 0 11-2.6-24.53l9-12.65a32 32 0 102.75 50zM188.76 26.56l-9 12.61A17.62 17.62 0 01178 74.31V10.75h-14.93v13.92a32 32 0 000 64.05v14.43H178V88.72a32 32 0 0010.76-62.16m-43.3 30.13a17.62 17.62 0 0117.61-17.61v35.23a17.62 17.62 0 01-17.61-17.62M296.18 87.44h-16.3v-61.5h16.3zm2.07-30.75l22.05-30.75h17L315 56.25l23.4 31.19h-17.2l-23-30.75" class="cls-1"/><path fill="#fff" d="M44.29 33.66h64.2A56.81 56.81 0 0074.93 3z" class="cls-2"/><path fill="#fff" d="M111.64 42.69H33.39A4.52 4.52 0 0130.2 35L64.62.56A57.6 57.6 0 0056.69 0 56.69 56.69 0 001.33 68.9h79.1a4.52 4.52 0 013.19 7.71l-36 36a56.71 56.71 0 0064.06-70z" class="cls-2"/><path fill="#fff" d="M69.53 77.93H4.13A56.86 56.86 0 0037.43 110z" class="cls-2"/></svg>