<svg xmlns="http://www.w3.org/2000/svg" width="112" height="82" fill="none"><path fill="#FEF0E5" fill-rule="evenodd" d="M10.89 8.624l16.839-7.186a17.922 17.922 0 0114.042-.011l51.947 22.06a17.925 17.925 0 0110.919 16.498v24.08c0 9.9-8.026 17.924-17.926 17.924H17.925C8.025 81.99 0 73.964 0 64.064V25.11c0-7.18 4.285-13.668 10.89-16.486z" clip-rule="evenodd"/><path stroke="#3B3D52" stroke-linecap="round" stroke-linejoin="round" stroke-width="2" d="M70 80.741h41V55.118H70V80.74z" clip-rule="evenodd"/><path stroke="#3B3D52" stroke-linecap="round" stroke-linejoin="round" stroke-width="2" d="M87.937 67.93h5.125M111 67.57a40.818 40.818 0 01-20.5 5.485A40.817 40.817 0 0170 67.57"/><path stroke="#3B3D52" stroke-linecap="round" stroke-linejoin="round" stroke-width="2" d="M82.813 55.117h15.375v-5.124H82.813v5.124z" clip-rule="evenodd"/><path fill="#fff" d="M16 15h42v67H16z"/><path stroke="#E94200" stroke-linecap="round" stroke-width="2" d="M16 81V16a1 1 0 011-1h40a1 1 0 011 1v65"/><mask id="a" fill="#fff"><rect width="7" height="7" x="22" y="23" rx="1"/></mask><rect width="7" height="7" x="22" y="23" stroke="#E94200" stroke-width="4" mask="url(#a)" rx="1"/><mask id="b" fill="#fff"><rect width="7" height="7" x="34" y="23" rx="1"/></mask><rect width="7" height="7" x="34" y="23" stroke="#E94200" stroke-width="4" mask="url(#b)" rx="1"/><mask id="c" fill="#fff"><rect width="7" height="7" x="46" y="23" rx="1"/></mask><rect width="7" height="7" x="46" y="23" stroke="#E94200" stroke-width="4" mask="url(#c)" rx="1"/><mask id="d" fill="#fff"><rect width="7" height="7" x="22" y="35" rx="1"/></mask><rect width="7" height="7" x="22" y="35" stroke="#E94200" stroke-width="4" mask="url(#d)" rx="1"/><mask id="e" fill="#fff"><rect width="7" height="7" x="34" y="35" rx="1"/></mask><rect width="7" height="7" x="34" y="35" stroke="#E94200" stroke-width="4" mask="url(#e)" rx="1"/><mask id="f" fill="#fff"><rect width="7" height="7" x="46" y="35" rx="1"/></mask><rect width="7" height="7" x="46" y="35" stroke="#E94200" stroke-width="4" mask="url(#f)" rx="1"/><mask id="g" fill="#fff"><rect width="7" height="7" x="22" y="47" rx="1"/></mask><rect width="7" height="7" x="22" y="47" stroke="#E94200" stroke-width="4" mask="url(#g)" rx="1"/><mask id="h" fill="#fff"><rect width="7" height="7" x="34" y="47" rx="1"/></mask><rect width="7" height="7" x="34" y="47" stroke="#E94200" stroke-width="4" mask="url(#h)" rx="1"/><mask id="i" fill="#fff"><rect width="7" height="7" x="46" y="47" rx="1"/></mask><rect width="7" height="7" x="46" y="47" stroke="#E94200" stroke-width="4" mask="url(#i)" rx="1"/><mask id="j" fill="#fff"><rect width="7" height="7" x="22" y="59" rx="1"/></mask><rect width="7" height="7" x="22" y="59" stroke="#E94200" stroke-width="4" mask="url(#j)" rx="1"/><mask id="k" fill="#fff"><rect width="7" height="7" x="34" y="59" rx="1"/></mask><rect width="7" height="7" x="34" y="59" stroke="#E94200" stroke-width="4" mask="url(#k)" rx="1"/><mask id="l" fill="#fff"><rect width="7" height="7" x="46" y="59" rx="1"/></mask><rect width="7" height="7" x="46" y="59" stroke="#E94200" stroke-width="4" mask="url(#l)" rx="1"/><path stroke="#E94200" stroke-linecap="round" stroke-width="2" d="M34 81v-8a1 1 0 011-1h5a1 1 0 011 1v8"/></svg>