<svg height="83" width="105" xmlns="http://www.w3.org/2000/svg"><g fill="none" fill-rule="evenodd"><path d="M10.89 8.624l16.84-7.186a17.922 17.922 0 0114.041-.012l51.947 22.061a17.925 17.925 0 0110.92 16.498v24.079c0 9.9-8.027 17.925-17.927 17.925H17.925C8.025 81.989 0 73.964 0 64.064V25.11c0-7.18 4.285-13.669 10.89-16.486" fill="#fef0e5"/><path d="M22 82V65" stroke="#e94200" stroke-linecap="round" stroke-linejoin="round" stroke-width="2"/><path d="M51.82 34.578c.147 1.653.276 3.54.377 5.691.224 4.75.23 10.511-.558 15.277M40.207 70.312a20.829 20.829 0 01-8.26 1.705" stroke="#3b3d52" stroke-linecap="round" stroke-linejoin="round" stroke-width="2"/><path d="M45.117 59.08c-4.586 7.815-14.895 10.284-23.024 5.515-8.129-4.77-11-14.975-6.414-22.79 4.587-7.818 29.08-17.185 29.67-16.839.587.345 4.355 26.297-.232 34.113" fill="#fff"/><path d="M45.117 59.08c-4.586 7.815-14.895 10.284-23.024 5.515-8.129-4.77-11-14.975-6.414-22.79 4.587-7.818 29.08-17.185 29.67-16.839.587.345 4.355 26.297-.232 34.113zm-22.692 4.948l22.59-38.496" stroke="#e94200" stroke-linecap="round" stroke-linejoin="round" stroke-width="2"/><path d="M15.078 71.652c-4.846 0-9.314-2.142-12.258-5.876m3.132-30.389c1.644.39 3.685.973 6.246 1.804" stroke="#3b3d52" stroke-linecap="round" stroke-linejoin="round" stroke-width="2"/><path d="M24.222 48.908c3.657 4.64 2.71 11.484-2.116 15.288S10.404 67.32 6.747 62.68s-3.53-21.733-3.18-22.008c.348-.276 16.998 3.596 20.655 8.236" fill="#fff"/><path d="M24.222 48.908c3.657 4.64 2.71 11.484-2.116 15.288S10.404 67.32 6.747 62.68s-3.53-21.733-3.18-22.008c.348-.276 16.998 3.596 20.655 8.236zM21.84 63.86L3.83 41.007" stroke="#e94200" stroke-linecap="round" stroke-linejoin="round" stroke-width="2"/></g></svg>