<svg height="83" width="110" xmlns="http://www.w3.org/2000/svg"><g fill="none" fill-rule="evenodd"><path d="M11.89 8.624l16.84-7.186a17.922 17.922 0 0114.042-.012l51.947 22.061a17.925 17.925 0 0110.918 16.498v24.079c0 9.9-8.025 17.925-17.925 17.925H18.925C9.025 81.989 1 73.964 1 64.064V25.11c0-7.18 4.286-13.669 10.89-16.486" fill="#fef0e5"/><path d="M27.5 26C12.864 26 2 35.864 2 50.5S12.864 73 27.5 73 54 65.136 54 50.5H28z" fill="#fff"/><path d="M27.5 26C12.864 26 2 35.864 2 50.5S12.864 73 27.5 73 54 65.136 54 50.5" stroke="#e94200" stroke-linecap="round" stroke-linejoin="round" stroke-width="2"/><path d="M11 77a5 5 0 01-5 5 5 5 0 01-5-5 5 5 0 015-5 5 5 0 015 5" fill="#fff"/><path d="M11 77a5 5 0 01-5 5 5 5 0 01-5-5 5 5 0 015-5 5 5 0 015 5zm8-15L6 77m10-15h6m34-21L43 56m10-15h6" stroke="#e94200" stroke-linecap="round" stroke-linejoin="round" stroke-width="2"/><path d="M44 77a5 5 0 005 5 5 5 0 005-5 5 5 0 00-5-5 5 5 0 00-5 5" fill="#fff"/><g stroke-linecap="round" stroke-linejoin="round" stroke-width="2"><path d="M44 77a5 5 0 005 5 5 5 0 005-5 5 5 0 00-5-5 5 5 0 00-5 5zm-8-15l13 15M39 62h-6m21-12H2m26 0V26m-4 1v16m0 7v-3" stroke="#e94200"/><path d="M71 52.454v29.092m13.333-29.092v29.092m20.607-29.092l-3.03 29.092m3.03-29.092L109 81.546M71 53.445h33.939M89.181 72.849h9.091v-3.425h-9.091zm1.213-19.182v15.151m6.913-15.151v15.757M71 57.91h13.333M71 62h13.333M71 66.09h13.333M71 70.182h13.333M71 74.272h13.333" stroke="#3b3d52"/></g></g></svg>