<svg height="84" width="137" xmlns="http://www.w3.org/2000/svg"><g fill="none" fill-rule="evenodd"><path d="M10.89 8.624l16.84-7.186a17.922 17.922 0 0114.042-.012l51.947 22.061a17.925 17.925 0 0110.918 16.498v24.079c0 9.9-8.025 17.925-17.925 17.925H17.925C8.025 81.989 0 73.964 0 64.064V25.11c0-7.18 4.286-13.669 10.89-16.486" fill="#fef0e5"/><path d="M135.5 74.5a4.5 4.5 0 11-9 0 4.5 4.5 0 019 0zM131 81v-4.5M119 31H98m34 3.25H91M120 38H94" stroke="#3b3d52" stroke-linecap="round" stroke-linejoin="round" stroke-width="2"/><path d="M115 84H19V39l26-14 25 13v14l13-7 13 7v9l9-5 10 5z" fill="#fff"/><g stroke-linecap="round" stroke-linejoin="round" stroke-width="2"><path d="M19 39l25.6-14m25.6 27L83 45m12.8 16.563l9.6-5.25M70.2 38.2L44.6 25v56m51.2-29.6L83 44.8m32 16.5l-9.6-4.95M70.2 39v42M83 45v36m12.8-29v29m9.6-24v24m9.6-19v19M19 39v42" stroke="#e94200"/><path d="M11 68.223c0 4.878-2.238 8.833-5 8.833S1 73.1 1 68.223c0-4.88 2.238-8.834 5-8.834s5 3.955 5 8.834zM6 81V68.111" stroke="#3b3d52"/></g></g></svg>