<svg height="83" width="105" xmlns="http://www.w3.org/2000/svg"><g fill="none" fill-rule="evenodd"><path d="M10.89 8.624l16.84-7.186a17.922 17.922 0 0114.041-.012l51.947 22.061a17.925 17.925 0 0110.92 16.498v24.08c0 9.9-8.027 17.924-17.927 17.924H17.925C8.025 81.99 0 73.964 0 64.064V25.11c0-7.18 4.285-13.669 10.89-16.486" fill="#fef0e5"/><path d="M7.065 26.866l5.264-2.245a9.993 9.993 0 017.798-.006l15.328 6.51" stroke="#e94200" stroke-linecap="round" stroke-linejoin="round" stroke-width="2"/><path d="M23.518 78.924V51.117h8.165a4.586 4.586 0 004.585-4.586v-7.823c0-1.84-1.1-3.502-2.793-4.221l-15.448-6.56a4.59 4.59 0 00-3.592.003l-5.38 2.296a4.587 4.587 0 00-2.787 4.218V46.53a4.586 4.586 0 004.586 4.586h8.164v12.057h-2.625a2.25 2.25 0 000 4.5h2.625v4.5h-5.625a2.25 2.25 0 000 4.5h5.625v2.25a2.25 2.25 0 104.5 0" fill="#fff"/><g stroke-linecap="round" stroke-linejoin="round" stroke-width="2"><path d="M23.518 78.924V51.117h8.165a4.586 4.586 0 004.585-4.586v-7.823c0-1.84-1.1-3.502-2.793-4.221l-15.448-6.56a4.59 4.59 0 00-3.592.003l-5.38 2.296a4.587 4.587 0 00-2.787 4.218V46.53a4.586 4.586 0 004.586 4.586h8.164v12.057h-2.625a2.25 2.25 0 000 4.5h2.625v4.5h-5.625a2.25 2.25 0 000 4.5h5.625v2.25a2.25 2.25 0 104.5 0zm-7.5-27.807h11.915" stroke="#e94200"/><path d="M21.268 40.674a2.25 2.25 0 110-4.5 2.25 2.25 0 010 4.5z" stroke="#e94200"/><path d="M53 81V54h24v27M65 54v27" stroke="#3b3d52"/><path d="M48 63V49h9m25 32V61M69 72v1m-8-1v1" stroke="#3b3d52"/></g></g></svg>