<svg height="82" width="106" xmlns="http://www.w3.org/2000/svg"><g fill="none" fill-rule="evenodd"><path d="M11.39 8.624l16.84-7.186a17.922 17.922 0 0 1 14.042-.012l51.947 22.061a17.925 17.925 0 0 1 10.918 16.498v24.079c0 9.9-8.025 17.925-17.925 17.925H18.425C8.525 81.989.5 73.964.5 64.064V25.11c0-7.18 4.286-13.669 10.89-16.486" fill="#fef0e5"/><path d="M35.5 82h14v-3h-14zm2.688-38.25c0 6.903-5.598 12.5-12.5 12.5-6.903 0-12.5-5.597-12.5-12.5" fill="#fff"/><path d="M38.188 43.75c0 6.903-5.598 12.5-12.5 12.5-6.903 0-12.5-5.597-12.5-12.5" stroke="#e94200" stroke-linecap="round" stroke-linejoin="round" stroke-width="2"/><path d="M12.188 42.75c0-7.456 6.043-13.5 13.5-13.5 7.456 0 13.5 6.044 13.5 13.5" fill="#fff"/><path d="M12.188 42.75c0-7.456 6.043-13.5 13.5-13.5 7.456 0 13.5 6.044 13.5 13.5m-28 .25h29m-9.5-12v7m-10-7v7" stroke="#e94200" stroke-linecap="round" stroke-linejoin="round" stroke-width="2"/><path d="M50 81c0-13.531-10.969-24.5-24.5-24.5S1 67.469 1 81" fill="#fff"/><g stroke-linecap="round" stroke-linejoin="round" stroke-width="2"><path d="M50 81c0-13.531-10.969-24.5-24.5-24.5S1 67.469 1 81" stroke="#e94200"/><path d="M13.5 81h25V69h-25zm4-23v15m16-15v15" stroke="#e94200"/><path d="M88.188 43.75c0 6.903-5.597 12.5-12.5 12.5-6.904 0-12.5-5.597-12.5-12.5s5.596-12.5 12.5-12.5c6.903 0 12.5 5.597 12.5 12.5zM100 81c0-13.531-10.969-24.5-24.5-24.5S51 67.469 51 81m36.5-33c-8.837 0-16-7.163-16-16m-8.122 13.93C68.228 43.18 71.5 37.973 71.5 32" stroke="#3b3d52"/><path d="M91.5 30a5 5 0 0 1-5 5 5 5 0 0 1-5-5 5 5 0 0 1 5-5 5 5 0 0 1 5 5zm-5 41h4m-21-13l6 6 6-6m-6 6v16m0 1l9-13-4-2h7l-2.652-7.652M75.5 81l-9-13 4-2h-7l2.652-7.652" stroke="#3b3d52"/></g></g></svg>